<?xml version="1.0" standalone="no"?>
<!DOCTYPE svg PUBLIC "-//W3C//DTD SVG 20010904//EN"
 "http://www.w3.org/TR/2001/REC-SVG-20010904/DTD/svg10.dtd">
<svg version="1.0" xmlns="http://www.w3.org/2000/svg"
 width="624.000000px" height="600.000000px" viewBox="0 0 624.000000 600.000000"
 preserveAspectRatio="xMidYMid meet">

<g transform="translate(0.000000,3264.000000) scale(0.100000,-0.100000)"
fill="#000000" stroke="none">
<path d="M9303 18109 c-44 -13 -100 -70 -112 -116 -15 -53 -15 -1389 0 -1447
12 -48 44 -87 92 -113 30 -17 84 -18 752 -18 688 0 722 1 758 19 22 11 51 37
65 59 l27 41 3 715 c2 637 1 721 -13 758 -19 50 -61 88 -113 103 -48 13 -1413
12 -1459 -1z m805 -271 l3 -57 50 -10 c94 -21 172 -73 221 -150 34 -54 35 -69
5 -80 -12 -5 -47 -21 -77 -35 -52 -25 -69 -23 -70 8 0 31 -85 106 -120 106 -7
0 -10 -109 -10 -340 l0 -340 39 20 c44 22 86 71 96 113 4 15 12 27 17 27 27 0
150 -44 154 -55 7 -17 -31 -90 -73 -141 -38 -47 -130 -100 -191 -110 l-41 -6
-3 -57 -3 -56 -70 0 -70 0 -3 56 -3 57 -40 6 c-64 10 -150 59 -202 115 -91 97
-133 234 -124 406 12 239 123 400 310 452 l57 16 0 52 c0 28 3 55 7 59 4 4 37
6 73 4 l65 -3 3 -57z"/>
<path d="M9909 17591 c-164 -103 -166 -522 -3 -617 25 -15 47 -24 50 -22 2 3
3 154 2 337 l-3 332 -46 -30z"/>
<path d="M11768 18100 c-402 -73 -698 -427 -698 -834 0 -236 95 -455 268 -617
114 -107 216 -163 373 -206 90 -25 328 -25 419 1 344 95 587 377 630 732 34
277 -91 573 -318 754 -73 57 -218 131 -307 155 -70 19 -297 28 -367 15z m224
-337 l3 -57 51 -11 c94 -21 174 -82 212 -162 9 -18 13 -35 10 -38 -2 -3 -49
-18 -103 -35 l-99 -29 -31 36 c-27 32 -38 37 -87 41 -65 5 -98 -9 -98 -42 0
-35 16 -43 131 -71 142 -35 200 -59 241 -103 56 -58 72 -97 72 -177 0 -83 -21
-129 -86 -191 -52 -50 -85 -68 -160 -84 l-58 -13 0 -59 0 -58 -65 0 -65 0 0
60 c0 51 -3 60 -18 60 -10 0 -47 10 -83 22 -81 27 -165 107 -192 182 -9 27
-16 51 -14 52 5 5 199 44 219 44 9 0 23 -12 30 -27 20 -40 61 -65 117 -71 70
-6 111 12 111 49 0 36 -18 46 -139 76 -106 26 -194 63 -229 96 -57 53 -85 162
-63 243 13 50 56 114 96 146 16 13 59 33 95 45 l65 22 3 55 3 56 64 0 64 0 3
-57z"/>
<path d="M13565 17148 c-4 -12 -55 -256 -55 -264 0 -2 106 -4 235 -4 217 0
235 -1 235 -17 0 -10 -52 -277 -115 -593 -63 -316 -115 -581 -115 -587 0 -10
40 -13 168 -13 l168 0 114 561 c62 309 117 581 122 605 l10 44 237 0 238 0 27
133 c14 72 26 135 26 140 0 4 -290 7 -645 7 -507 0 -647 -3 -650 -12z"/>
<path d="M19455 17048 c-3 -13 -16 -75 -28 -138 l-23 -115 -89 -5 -90 -5 -22
-105 c-34 -161 -39 -150 63 -150 84 0 86 0 81 -22 -28 -114 -97 -501 -97 -542
0 -218 167 -339 432 -314 72 7 182 38 200 56 8 8 -29 210 -42 225 -3 4 -28 0
-54 -9 -58 -20 -138 -15 -166 11 -43 39 -43 73 6 320 25 126 48 240 51 253 5
21 8 22 143 22 77 0 141 4 145 9 9 16 53 240 47 246 -3 3 -67 5 -142 5 l-137
0 27 135 c15 74 25 137 22 140 -3 3 -76 5 -163 5 -156 0 -159 0 -164 -22z"/>
<path d="M16742 16819 c-162 -21 -306 -102 -404 -226 -220 -281 -190 -693 63
-862 94 -63 176 -84 307 -79 120 5 187 26 273 84 l52 34 -7 -48 -6 -49 146 -7
c81 -4 151 -3 156 2 10 10 237 1140 230 1147 -3 3 -76 5 -163 5 -178 0 -159
10 -180 -97 -6 -35 -13 -63 -15 -63 -2 0 -21 18 -41 41 -86 95 -244 140 -411
118z m243 -293 c62 -28 110 -82 126 -138 6 -24 9 -81 7 -128 -9 -193 -129
-325 -307 -338 -191 -13 -304 99 -288 288 13 156 98 278 224 325 63 23 179 19
238 -9z"/>
<path d="M18463 16820 c-87 -13 -165 -42 -232 -87 l-64 -43 7 52 c4 28 8 56 9
62 1 8 -48 11 -153 11 l-154 0 -113 -569 c-61 -313 -110 -573 -107 -578 7 -12
311 -10 319 2 3 5 31 137 61 292 75 383 86 418 161 492 61 61 113 80 218 81
102 0 141 -16 176 -72 39 -63 35 -113 -35 -463 -36 -178 -66 -328 -66 -332 0
-12 318 -10 325 2 15 24 145 711 145 765 0 187 -105 330 -275 373 -60 15 -164
21 -222 12z"/>
<path d="M20637 16820 c-266 -32 -478 -205 -552 -450 -82 -276 6 -534 222
-648 169 -89 434 -99 633 -23 70 27 159 78 166 96 4 10 -96 186 -121 213 -1 2
-31 -13 -66 -32 -114 -62 -247 -81 -364 -51 -99 26 -160 91 -172 185 l-6 40
440 0 440 0 7 46 c11 81 7 208 -9 267 -66 252 -310 393 -618 357z m152 -251
c71 -15 127 -59 157 -122 13 -29 24 -64 24 -79 l0 -28 -285 0 c-157 0 -285 2
-285 5 0 3 10 25 21 48 49 95 103 142 195 171 60 18 107 19 173 5z"/>
<path d="M22175 16823 c-93 -13 -206 -60 -265 -110 l-33 -28 5 30 c4 17 9 47
13 68 l7 37 -155 0 -156 0 -10 -52 c-70 -334 -217 -1095 -214 -1100 2 -5 76
-8 163 -8 157 0 160 0 165 23 3 12 32 159 65 325 66 336 90 405 162 466 76 66
221 85 297 40 44 -26 71 -87 71 -160 0 -32 -27 -194 -60 -359 -33 -165 -60
-308 -60 -318 0 -16 12 -17 162 -15 l162 3 62 310 c34 171 72 335 83 366 26
68 88 142 145 171 26 14 66 23 111 25 133 8 200 -55 198 -186 -1 -36 -29 -201
-62 -366 -34 -164 -61 -305 -61 -312 0 -11 33 -13 163 -11 l162 3 68 335 c78
386 87 490 49 589 -44 113 -121 184 -237 217 -71 21 -205 23 -285 5 -80 -19
-187 -73 -245 -124 l-51 -45 -48 54 c-47 53 -105 90 -176 112 -42 12 -153 21
-195 15z"/>
<path d="M14936 16812 c-2 -4 -35 -160 -71 -347 -74 -374 -82 -464 -52 -567
47 -157 190 -248 391 -248 136 0 253 37 335 106 18 14 34 25 36 22 2 -2 0 -21
-5 -43 -16 -69 -25 -65 144 -65 l155 0 10 53 c123 617 211 1067 211 1080 0 16
-15 17 -162 15 l-162 -3 -62 -305 c-71 -356 -75 -369 -114 -437 -48 -84 -121
-128 -228 -139 -115 -12 -200 36 -222 126 -14 59 -15 52 61 436 32 166 59 307
59 313 0 13 -316 16 -324 3z"/>
<path d="M9951 16210 c-272 -38 -521 -214 -641 -453 -243 -483 4 -1051 522
-1201 475 -137 965 163 1064 653 22 110 15 284 -16 391 -100 348 -409 594
-771 614 -52 2 -123 1 -158 -4z m17 -352 l3 -78 34 0 34 0 3 78 3 77 53 3 52
3 0 -84 0 -84 48 -7 c67 -9 145 -48 173 -87 18 -25 24 -50 27 -99 3 -60 1 -68
-28 -107 -18 -24 -37 -43 -43 -43 -7 0 6 -9 28 -19 46 -20 92 -70 101 -108 4
-13 4 -54 1 -90 -9 -119 -80 -185 -225 -207 l-77 -12 -3 -82 -3 -83 -52 3 -52
3 -3 77 c-3 73 -4 78 -27 84 -39 10 -45 -2 -45 -87 l0 -79 -55 0 -55 0 0 85 0
85 -101 0 -101 0 6 48 c12 81 12 81 69 84 l52 3 3 244 c2 166 -1 248 -9 257
-6 7 -34 14 -62 16 l-52 3 -3 58 -3 57 101 0 100 0 0 86 0 85 53 -3 52 -3 3
-77z"/>
<path d="M9970 15550 l0 -100 39 0 c66 0 144 19 168 42 16 15 23 33 23 58 0
66 -60 98 -182 100 l-48 0 0 -100z"/>
<path d="M9983 15344 c-9 -4 -13 -36 -13 -110 l0 -104 78 0 c42 0 94 5 116 11
116 32 116 158 0 188 -50 12 -165 22 -181 15z"/>
<path d="M11215 16206 c-39 -17 -70 -52 -90 -98 -13 -33 -15 -127 -15 -730 0
-453 4 -706 11 -731 14 -51 63 -104 107 -117 25 -8 270 -10 758 -8 l721 3 36
28 c76 58 72 10 75 795 2 469 -1 716 -8 742 -13 49 -54 99 -97 116 -47 20
-1453 20 -1498 0z m678 -516 l71 -150 83 0 82 0 3 148 3 147 85 0 85 0 3 -147
3 -148 49 0 50 0 0 -59 0 -60 -47 -3 c-46 -3 -48 -4 -48 -33 0 -29 2 -30 48
-33 l47 -3 0 -60 0 -59 -50 0 -50 0 0 -165 0 -165 -98 0 -97 0 -83 165 -82
165 -75 0 -75 0 -2 -162 -3 -163 -92 -3 -93 -3 0 166 0 165 -45 0 -45 0 0 60
0 60 45 0 c45 0 45 0 45 35 0 35 0 35 -45 35 l-45 0 0 60 0 60 45 0 45 0 0
143 c0 79 3 147 7 150 3 4 51 7 105 7 l100 0 71 -150z"/>
<path d="M11800 15385 c0 -35 0 -35 45 -35 25 0 45 2 45 5 0 4 -7 19 -15 35
-12 23 -22 30 -45 30 -28 0 -30 -3 -30 -35z"/>
<path d="M12030 15410 c0 -6 7 -22 16 -35 12 -19 25 -25 50 -25 32 0 34 2 34
35 l0 35 -50 0 c-28 0 -50 -5 -50 -10z"/>
<path d="M12120 15223 c0 -5 5 -15 10 -23 8 -12 10 -11 10 8 0 12 -4 22 -10
22 -5 0 -10 -3 -10 -7z"/>
</g>
</svg>
